<svg width="15" height="13" viewBox="0 0 15 13" fill="none" xmlns="http://www.w3.org/2000/svg">
<path d="M13.695 0H1.245C0.557656 0 0 0.59317 0 1.32429V11.0357C0 11.7668 0.557656 12.36 1.245 12.36H13.695C14.3823 12.36 14.94 11.7668 14.94 11.0357V1.32429C14.94 0.59317 14.3823 0 13.695 0ZM13.695 11.0357H1.245V1.32429H13.695V11.0357ZM5.395 6.18C6.31059 6.18 7.055 5.38819 7.055 4.41429C7.055 3.44038 6.31059 2.64857 5.395 2.64857C4.47941 2.64857 3.735 3.44038 3.735 4.41429C3.735 5.38819 4.47941 6.18 5.395 6.18ZM3.071 9.71143H7.719C8.04062 9.71143 8.3 9.47416 8.3 9.18171V8.652C8.3 7.77466 7.51928 7.06286 6.557 7.06286C6.27688 7.06286 6.07197 7.28357 5.395 7.28357C4.69728 7.28357 4.52869 7.06286 4.233 7.06286C3.27072 7.06286 2.49 7.77466 2.49 8.652V9.18171C2.49 9.47416 2.74938 9.71143 3.071 9.71143ZM9.3375 7.94571H12.2425C12.3566 7.94571 12.45 7.84639 12.45 7.725V7.28357C12.45 7.16218 12.3566 7.06286 12.2425 7.06286H9.3375C9.22337 7.06286 9.13 7.16218 9.13 7.28357V7.725C9.13 7.84639 9.22337 7.94571 9.3375 7.94571ZM9.3375 6.18H12.2425C12.3566 6.18 12.45 6.08068 12.45 5.95929V5.51786C12.45 5.39646 12.3566 5.29714 12.2425 5.29714H9.3375C9.22337 5.29714 9.13 5.39646 9.13 5.51786V5.95929C9.13 6.08068 9.22337 6.18 9.3375 6.18ZM9.3375 4.41429H12.2425C12.3566 4.41429 12.45 4.31496 12.45 4.19357V3.75214C12.45 3.63075 12.3566 3.53143 12.2425 3.53143H9.3375C9.22337 3.53143 9.13 3.63075 9.13 3.75214V4.19357C9.13 4.31496 9.22337 4.41429 9.3375 4.41429Z" fill="#4D4C4C"/>
</svg>
