<svg width="12" height="12" viewBox="0 0 12 12" fill="none" xmlns="http://www.w3.org/2000/svg">
<path d="M8.565 10.35L10.65 8.28L10.02 7.65L8.565 9.075L7.98 8.49L7.35 9.135L8.565 10.35ZM1.8 3.6H9V2.4H1.8V3.6ZM9 12C8.17 12 7.4626 11.7074 6.8778 11.1222C6.293 10.537 6.0004 9.8296 6 9C5.9996 8.1704 6.2922 7.463 6.8778 6.8778C7.4634 6.2926 8.1708 6 9 6C9.8292 6 10.5368 6.2926 11.1228 6.8778C11.7088 7.463 12.0012 8.1704 12 9C11.9988 9.8296 11.7062 10.5372 11.1222 11.1228C10.5382 11.7084 9.8308 12.0008 9 12ZM0 11.4V0H10.8V5.205C10.61 5.115 10.415 5.04 10.215 4.98C10.015 4.92 9.81 4.875 9.6 4.845V1.2H1.2V9.63H4.845C4.895 9.94 4.9726 10.235 5.0778 10.515C5.183 10.795 5.3204 11.06 5.49 11.31L5.4 11.4L4.5 10.5L3.6 11.4L2.7 10.5L1.8 11.4L0.9 10.5L0 11.4ZM1.8 8.4H4.845C4.875 8.19 4.92 7.985 4.98 7.785C5.04 7.585 5.115 7.39 5.205 7.2H1.8V8.4ZM1.8 6H6.06C6.44 5.63 6.8826 5.3374 7.3878 5.1222C7.893 4.907 8.4304 4.7996 9 4.8H1.8V6Z" fill="#655555"/>
</svg>
