<svg width="12" height="11" viewBox="0 0 12 11" fill="none" xmlns="http://www.w3.org/2000/svg">
<path fill-rule="evenodd" clip-rule="evenodd" d="M1.57143 1.17857C1.46724 1.17857 1.36731 1.21996 1.29364 1.29364C1.21996 1.36731 1.17857 1.46724 1.17857 1.57143V9.42857C1.17857 9.53276 1.21996 9.63269 1.29364 9.70636C1.36731 9.78004 1.46724 9.82143 1.57143 9.82143H5.69643C5.85272 9.82143 6.0026 9.88351 6.11312 9.99403C6.22363 10.1045 6.28571 10.2544 6.28571 10.4107C6.28571 10.567 6.22363 10.7169 6.11312 10.8274C6.0026 10.9379 5.85272 11 5.69643 11H1.57143C1.15466 11 0.754961 10.8344 0.460261 10.5397C0.165561 10.245 0 9.84534 0 9.42857V1.57143C0 1.15466 0.165561 0.754961 0.460261 0.460261C0.754961 0.165561 1.15466 0 1.57143 0H9.42857C9.84534 0 10.245 0.165561 10.5397 0.460261C10.8344 0.754961 11 1.15466 11 1.57143V6.48214C11 6.63843 10.9379 6.78832 10.8274 6.89883C10.7169 7.00934 10.567 7.07143 10.4107 7.07143C10.2544 7.07143 10.1045 7.00934 9.99403 6.89883C9.88351 6.78832 9.82143 6.63843 9.82143 6.48214V1.57143C9.82143 1.46724 9.78004 1.36731 9.70636 1.29364C9.63269 1.21996 9.53276 1.17857 9.42857 1.17857H1.57143ZM11.22 8.03C11.3304 8.14049 11.3923 8.29027 11.3923 8.44643C11.3923 8.60259 11.3304 8.75237 11.22 8.86286L9.25571 10.8271C9.14522 10.9375 8.99545 10.9995 8.83929 10.9995C8.68312 10.9995 8.53335 10.9375 8.42286 10.8271L7.63714 10.0414C7.57925 9.98748 7.53281 9.92242 7.5006 9.85014C7.46839 9.77785 7.45107 9.69982 7.44968 9.6207C7.44828 9.54157 7.46284 9.46298 7.49248 9.3896C7.52211 9.31623 7.56623 9.24957 7.62218 9.19361C7.67814 9.13766 7.7448 9.09354 7.81817 9.0639C7.89155 9.03427 7.97014 9.01971 8.04927 9.02111C8.12839 9.0225 8.20642 9.03982 8.27871 9.07203C8.35099 9.10424 8.41605 9.15067 8.47 9.20857L8.83929 9.57786L10.3871 8.03C10.4976 7.91965 10.6474 7.85766 10.8036 7.85766C10.9597 7.85766 11.1095 7.91965 11.22 8.03ZM2.94643 2.35714C2.79014 2.35714 2.64025 2.41923 2.52974 2.52974C2.41923 2.64025 2.35714 2.79014 2.35714 2.94643C2.35714 3.10272 2.41923 3.2526 2.52974 3.36312C2.64025 3.47363 2.79014 3.53571 2.94643 3.53571H8.05357C8.20986 3.53571 8.35975 3.47363 8.47026 3.36312C8.58077 3.2526 8.64286 3.10272 8.64286 2.94643C8.64286 2.79014 8.58077 2.64025 8.47026 2.52974C8.35975 2.41923 8.20986 2.35714 8.05357 2.35714H2.94643ZM2.35714 5.5C2.35714 5.34371 2.41923 5.19382 2.52974 5.08331C2.64025 4.9728 2.79014 4.91071 2.94643 4.91071H8.05357C8.20986 4.91071 8.35975 4.9728 8.47026 5.08331C8.58077 5.19382 8.64286 5.34371 8.64286 5.5C8.64286 5.65629 8.58077 5.80617 8.47026 5.91669C8.35975 6.0272 8.20986 6.08929 8.05357 6.08929H2.94643C2.79014 6.08929 2.64025 6.0272 2.52974 5.91669C2.41923 5.80617 2.35714 5.65629 2.35714 5.5ZM2.94643 7.46429C2.79014 7.46429 2.64025 7.52637 2.52974 7.63688C2.41923 7.7474 2.35714 7.89728 2.35714 8.05357C2.35714 8.20986 2.41923 8.35975 2.52974 8.47026C2.64025 8.58077 2.79014 8.64286 2.94643 8.64286H5.69643C5.85272 8.64286 6.0026 8.58077 6.11312 8.47026C6.22363 8.35975 6.28571 8.20986 6.28571 8.05357C6.28571 7.89728 6.22363 7.7474 6.11312 7.63688C6.0026 7.52637 5.85272 7.46429 5.69643 7.46429H2.94643Z" fill="#484545"/>
</svg>
