<svg width="14" height="13" viewBox="0 0 14 13" fill="none" xmlns="http://www.w3.org/2000/svg">
<path d="M4.745 13L4.485 10.92C4.34417 10.8658 4.21157 10.8008 4.0872 10.725C3.96283 10.6492 3.84085 10.5679 3.72125 10.4812L1.7875 11.2937L0 8.20625L1.67375 6.93875C1.66292 6.86292 1.6575 6.7899 1.6575 6.7197V6.28095C1.6575 6.21032 1.66292 6.13708 1.67375 6.06125L0 4.79375L1.7875 1.70625L3.72125 2.51875C3.84042 2.43208 3.965 2.35083 4.095 2.275C4.225 2.19917 4.355 2.13417 4.485 2.08L4.745 0H8.32L8.58 2.08C8.72083 2.13417 8.85365 2.19917 8.97845 2.275C9.10325 2.35083 9.22502 2.43208 9.34375 2.51875L11.2775 1.70625L13.065 4.79375L11.3912 6.06125C11.4021 6.13708 11.4075 6.21032 11.4075 6.28095V6.71905C11.4075 6.78968 11.3967 6.86292 11.375 6.93875L13.0487 8.20625L11.2612 11.2937L9.34375 10.4812C9.22458 10.5679 9.1 10.6492 8.97 10.725C8.84 10.8008 8.71 10.8658 8.58 10.92L8.32 13H4.745ZM6.565 8.775C7.19333 8.775 7.72958 8.55292 8.17375 8.10875C8.61792 7.66458 8.84 7.12833 8.84 6.5C8.84 5.87167 8.61792 5.33542 8.17375 4.89125C7.72958 4.44708 7.19333 4.225 6.565 4.225C5.92583 4.225 5.38677 4.44708 4.9478 4.89125C4.50883 5.33542 4.28957 5.87167 4.29 6.5C4.29043 7.12833 4.50992 7.66458 4.94845 8.10875C5.38698 8.55292 5.92583 8.775 6.565 8.775Z" fill="#504E4E"/>
</svg>
