<svg width="23" height="16" viewBox="0 0 23 16" fill="none" xmlns="http://www.w3.org/2000/svg">
<path d="M5.1717 14.5C5.57408 14.5 5.95997 14.342 6.2445 14.0607C6.52902 13.7794 6.68886 13.3978 6.68886 13C6.68886 12.6022 6.52902 12.2206 6.2445 11.9393C5.95997 11.658 5.57408 11.5 5.1717 11.5C4.76933 11.5 4.38343 11.658 4.09891 11.9393C3.81438 12.2206 3.65454 12.6022 3.65454 13C3.65454 13.3978 3.81438 13.7794 4.09891 14.0607C4.38343 14.342 4.76933 14.5 5.1717 14.5ZM3.65454 5.5L1.67212 8H6.18314V5.5M17.309 14.5C17.7114 14.5 18.0973 14.342 18.3818 14.0607C18.6663 13.7794 18.8262 13.3978 18.8262 13C18.8262 12.6022 18.6663 12.2206 18.3818 11.9393C18.0973 11.658 17.7114 11.5 17.309 11.5C16.9066 11.5 16.5207 11.658 16.2362 11.9393C15.9517 12.2206 15.7918 12.6022 15.7918 13C15.7918 13.3978 15.9517 13.7794 16.2362 14.0607C16.5207 14.342 16.9066 14.5 17.309 14.5ZM3.14882 4H6.18314V0H20.3433C21.466 0 22.3662 0.89 22.3662 2V13H20.3433C20.3433 13.7956 20.0236 14.5587 19.4546 15.1213C18.8855 15.6839 18.1138 16 17.309 16C16.5042 16 15.7325 15.6839 15.1634 15.1213C14.5944 14.5587 14.2747 13.7956 14.2747 13H8.20603C8.20603 13.7956 7.88634 14.5587 7.31729 15.1213C6.74825 15.6839 5.97646 16 5.1717 16C4.36695 16 3.59516 15.6839 3.02611 15.1213C2.45706 14.5587 2.13738 13.7956 2.13738 13H0.114494V8L3.14882 4Z" fill="#565656"/>
</svg>
