<svg width="23" height="24" viewBox="0 0 23 24" fill="none" xmlns="http://www.w3.org/2000/svg">
<path d="M0.887018 1.60126H2.31832H2.31948H20.6817H22.113C21.982 1.33986 21.7819 1.11915 21.5341 0.963273C21.2788 0.802648 20.9833 0.717401 20.6817 0.717346L0.887018 1.60126ZM0.887018 1.60126C1.018 1.33986 1.21814 1.11915 1.4659 0.963272C1.72121 0.802648 2.01669 0.717401 2.31832 0.717346C2.31835 0.717346 2.31838 0.717346 2.31841 0.717346H20.6816L0.887018 1.60126ZM21.2418 2.76678L22.136 1.6492C22.2583 1.91494 22.3055 2.20928 22.2723 2.50025C22.2381 2.79996 22.1199 3.08391 21.9314 3.31939L21.9312 3.31957L14.4178 12.7099L14.2606 12.9064V13.1581V19.1285C14.2606 19.3771 14.2027 19.6223 14.0915 19.8446C13.9803 20.0669 13.8189 20.2604 13.6201 20.4095L11.3015 22.1485C11.0636 22.3269 10.7807 22.4355 10.4845 22.4622C10.1888 22.4889 9.8915 22.4328 9.62583 22.3003L10.7711 21.4413L13.0897 19.7024L13.3766 19.4872V19.1285V13.1581C13.3766 13.1581 13.3766 13.1581 13.3766 13.1581C13.3767 12.7946 13.5003 12.442 13.7273 12.1581L21.2418 2.76678ZM9.62335 20.8675V22.299C9.35792 22.166 9.13468 21.9619 8.97858 21.7093C8.82225 21.4563 8.73944 21.1648 8.73944 20.8675V13.1581V12.9064L8.58221 12.7099L1.06877 3.31957L1.06862 3.31939C0.880087 3.08391 0.761902 2.79996 0.727683 2.50025C0.694462 2.20928 0.741692 1.91494 0.863981 1.64921L1.75821 2.76678L9.27267 12.1581C9.27269 12.1581 9.2727 12.1582 9.27271 12.1582C9.27274 12.1582 9.27278 12.1583 9.27281 12.1583C9.49989 12.4423 9.62352 12.7952 9.62335 13.1589V13.1592V20.8675Z" fill="black" stroke="black" stroke-width="1.43469"/>
</svg>
