<svg width="24" height="22" viewBox="0 0 24 22" fill="none" xmlns="http://www.w3.org/2000/svg">
<path d="M2.69198 20.55H20.718C21.0108 20.5499 21.2985 20.4761 21.5531 20.3357C21.8078 20.1953 22.0205 19.9931 22.1706 19.7488C22.3207 19.5046 22.4031 19.2268 22.4096 18.9424C22.4161 18.658 22.3465 18.3769 22.2078 18.1264L13.1953 1.86472C12.5559 0.71176 10.8541 0.71176 10.2147 1.86472L1.20224 18.1264C1.06345 18.3769 0.99391 18.658 1.00042 18.9424C1.00693 19.2268 1.08926 19.5046 1.23937 19.7488C1.38949 19.9931 1.60224 20.1953 1.85685 20.3357C2.11146 20.4761 2.39921 20.5499 2.69198 20.55Z" stroke="black" stroke-width="1.8502" stroke-linecap="round" stroke-linejoin="round"/>
<path d="M11.4016 7.66022L11.7051 13.9285L12.0082 7.66278C12.01 7.62273 12.0035 7.58272 11.9889 7.54521C11.9743 7.5077 11.952 7.47347 11.9233 7.44462C11.8947 7.41577 11.8603 7.39289 11.8222 7.3774C11.7841 7.3619 11.7432 7.35412 11.702 7.35451C11.6614 7.35489 11.6213 7.36317 11.5841 7.37884C11.5469 7.39452 11.5134 7.41727 11.4854 7.44577C11.4574 7.47426 11.4355 7.50792 11.4211 7.54475C11.4067 7.58159 11.4001 7.62085 11.4016 7.66022Z" stroke="black" stroke-width="1.8502" stroke-linecap="round" stroke-linejoin="round"/>
<path d="M11.7051 18.0325C11.496 18.0325 11.2915 17.9722 11.1175 17.8593C10.9436 17.7464 10.808 17.5859 10.728 17.3981C10.6479 17.2104 10.627 17.0038 10.6678 16.8044C10.7086 16.6051 10.8093 16.422 10.9572 16.2783C11.1052 16.1346 11.2936 16.0367 11.4988 15.997C11.704 15.9574 11.9166 15.9777 12.1099 16.0555C12.3032 16.1333 12.4683 16.265 12.5846 16.434C12.7008 16.603 12.7628 16.8017 12.7628 17.0049C12.7628 17.2774 12.6514 17.5388 12.453 17.7315C12.2547 17.9242 11.9857 18.0325 11.7051 18.0325Z" fill="black"/>
</svg>
